<svg xmlns="http://www.w3.org/2000/svg" width="960" height="153" viewBox="0 193.5 960 153"><path d="M59.595 308.502c0 10.364-3.023 18.138-8.637 23.752-5.614 5.614-13.819 8.205-24.184 8.205H6.91v-61.754h21.592c9.933 0 17.706 2.591 22.888 7.773 5.182 4.75 8.205 12.091 8.205 22.024zm-17.706.432c0-5.614-1.296-9.933-3.455-12.524s-5.614-4.318-10.364-4.318h-4.75v34.98h3.887c5.182 0 8.637-1.296 11.228-4.319 2.591-3.023 3.454-7.773 3.454-13.819zM69.96 340.891v-62.186h16.842v62.186H69.96zM142.078 321.889c0 3.887-.864 7.341-3.023 10.364-2.159 3.023-4.75 5.182-8.637 6.91-3.887 1.727-8.205 2.591-12.955 2.591-4.318 0-7.773-.432-10.364-.864-2.591-.432-5.614-1.727-8.637-3.023v-15.115c3.023 1.727 6.478 3.023 9.933 3.887 3.455.864 6.478 1.296 9.501 1.296 2.591 0 4.318-.432 5.614-1.296 1.296-.864 1.727-2.159 1.727-3.455 0-.864-.432-1.727-.864-2.159-.432-.432-1.296-1.296-2.159-1.727-.864-.864-3.887-2.159-8.205-3.887-3.887-1.727-6.91-3.455-9.069-5.182-2.159-1.727-3.455-3.887-4.318-6.046-.864-2.159-1.296-4.75-1.296-7.773 0-5.614 2.159-10.364 6.046-13.387 3.887-3.023 9.933-4.75 17.274-4.75 6.478 0 12.955 1.296 19.865 4.318l-5.182 12.955c-5.614-2.591-10.796-3.887-15.115-3.887-2.159 0-3.887.432-4.75 1.296-.864.864-1.296 1.727-1.296 3.023s.432 2.159 1.727 3.455c1.296.864 4.75 2.591 10.364 5.182 5.182 2.591 9.069 5.182 11.228 7.773 1.296 1.728 2.591 5.183 2.591 9.501zM180.513 340.891h-16.41v-48.367h-15.115v-13.819h47.072v13.819h-15.115v48.367h-.432zM221.107 318.003v22.456h-16.842v-61.754h20.297c16.842 0 25.479 6.046 25.479 18.138 0 7.341-3.455 12.955-10.364 16.842l18.138 27.206h-19.001l-12.955-22.456h-4.75v-.432zm0-12.524h3.023c6.046 0 8.637-2.591 8.637-7.773 0-4.319-3.023-6.478-8.637-6.478h-3.455v14.251h.432zM264.723 340.891v-62.186h16.842v62.186h-16.842zM322.591 291.66c-3.887 0-6.91 1.727-9.501 4.75-2.159 3.455-3.455 7.773-3.455 13.387 0 12.092 4.75 18.138 13.819 18.138 2.591 0 5.614-.432 7.773-1.296l7.773-2.591V338.3c-5.182 2.159-11.228 3.455-17.706 3.455-9.501 0-16.41-2.591-21.592-8.205-5.182-5.614-7.341-13.387-7.341-23.752 0-6.478 1.296-12.092 3.455-16.842s6.046-8.637 10.364-11.228 9.933-3.887 15.978-3.887c6.91 0 12.955 1.296 19.433 4.318l-4.75 13.387c-2.159-.864-4.75-2.159-6.91-2.591-2.158-.863-4.749-1.295-7.34-1.295zM380.459 340.891h-16.842v-48.367h-15.115v-13.819h47.072v13.819h-15.115v48.367z"/><g><path d="M31.957 236.815c.432.432.864.864.864 2.159 0 2.159-1.296 3.887-3.455 5.182s-5.182 2.159-9.501 2.159c-5.182 0-9.501-1.296-12.524-4.318-3.023-3.023-4.318-6.91-4.318-12.092 0-7.773 2.591-14.251 7.341-19.865 4.75-5.614 10.796-8.637 17.706-8.637 3.887.432 6.478.864 8.637 2.159s3.023 3.023 3.023 4.75-.864 2.591-1.727 3.455c-1.296.864-2.591 1.296-4.318 1.296 0-5.614-2.159-8.205-6.046-8.205-5.182 0-9.069 2.591-12.524 8.205-3.455 5.614-5.182 11.66-5.182 18.138 0 7.773 3.455 11.228 10.796 11.228 4.75 0 8.205-1.727 11.228-5.614zM58.3 212.632c3.455 0 6.478 1.296 8.637 3.455 2.159 2.159 3.023 5.182 3.023 9.501 0 5.614-1.727 10.364-5.182 14.683-3.455 4.318-7.773 6.478-12.955 6.478-3.455 0-6.478-1.296-8.637-3.455-2.159-2.159-3.023-5.182-3.023-9.069 0-5.614 1.727-10.364 5.182-14.683 3.454-4.751 7.772-6.91 12.955-6.91zm-5.614 30.661c3.455 0 6.046-2.159 8.205-6.046 2.159-3.887 3.023-8.205 3.023-13.387 0-5.614-2.159-8.637-6.046-8.637-3.455 0-6.046 2.159-8.205 6.046-2.159 3.887-3.023 8.205-3.023 13.387 0 6.046 2.159 8.637 6.046 8.637zM76.005 213.063h11.228l-3.887 18.138c-.864 3.887-1.296 6.046-1.296 7.341 0 2.591.864 3.887 3.023 3.887 2.159 0 4.318-1.296 6.91-4.318 2.591-3.023 3.887-6.046 4.75-9.501l3.023-15.115h6.046l-4.318 19.433c-.432 3.023-.864 5.182-.864 6.91 0 2.159.864 3.023 2.159 3.023 1.296 0 2.591-.432 3.887-1.296l1.296 1.727c-2.591 2.159-5.182 3.455-7.773 3.455-1.727 0-2.591-.432-3.887-1.727-1.296-1.296-1.296-2.591-1.296-4.318 0-.864 0-2.159.432-3.455h-.432c-2.159 3.455-4.318 6.046-6.046 7.341s-3.887 1.727-6.046 1.727c-4.318 0-6.478-2.159-6.478-6.91 0-1.296.432-3.455 1.296-6.478l2.591-10.796c.432-1.727.432-3.023.432-3.455 0-1.727-1.296-3.023-4.318-3.023h-.432v-2.59zM117.895 245.884h-5.614l5.182-24.615c.432-1.296.432-2.159.432-2.591 0-1.727-1.296-3.023-4.318-3.023h-.432l.432-2.591h11.228l-1.727 7.773h.432c3.455-5.614 6.91-8.205 11.228-8.205s6.478 2.159 6.478 6.91c0 1.296-.432 3.455-1.296 6.478l-1.727 7.341v6.478c0 1.727.864 3.023 2.159 3.023 1.296 0 2.591-.432 3.887-1.296l1.296 1.727c-2.591 2.159-5.182 3.455-7.341 3.455-1.727 0-3.023-.432-3.887-1.727s-1.296-2.591-1.296-4.318c0-1.727.432-4.75 1.296-8.205l1.296-6.478c.432-2.591.864-4.318.864-5.614 0-2.591-.864-3.455-2.591-3.455-2.159 0-4.75 1.727-6.91 4.75-2.159 3.023-3.887 6.046-4.75 9.069l-4.321 15.114zM170.58 238.111c.432.432.432.864.432 1.727 0 1.727-.864 3.023-3.023 4.75-1.727 1.296-4.318 2.159-7.773 2.159s-6.478-1.296-8.637-3.455c-2.159-2.159-3.455-5.182-3.455-9.069 0-5.182 1.727-10.364 5.182-14.683 3.455-4.318 7.773-6.478 12.955-6.478 2.591 0 5.182.432 6.478 1.727 1.296 1.296 2.159 2.591 2.159 4.318 0 1.296-.432 2.159-1.296 3.023-.864.864-2.159 1.296-3.887 1.296 0-2.159-.432-3.887-1.296-5.182-.864-1.296-2.159-2.159-3.455-2.159-3.023 0-5.182 2.159-7.341 6.478-2.159 4.318-3.023 8.205-3.023 12.524 0 5.614 2.159 8.205 6.478 8.205 4.32-.863 7.343-2.158 9.502-5.181zM180.945 215.655l.432-2.591h10.796l-4.318 19.433c-.432 3.023-.864 5.182-.864 6.91 0 2.159.864 3.023 2.159 3.023s2.591-.432 4.318-1.727l1.296 1.727c-3.023 2.591-5.614 3.455-8.205 3.455-1.296 0-2.591-.432-3.455-1.727-.864-1.296-1.296-2.591-1.296-4.318 0-1.727.432-5.182 1.296-9.501l2.159-11.228v-1.727c0-1.727-1.296-2.591-3.887-2.591h-.432v.862zm9.932-8.637c-2.159 0-3.455-1.296-3.455-3.455 0-1.296.432-2.159.864-3.023.864-.864 1.727-1.296 2.591-1.296 2.159 0 3.455 1.296 3.455 3.455 0 1.296-.432 2.591-.864 3.023-.863.864-1.727 1.296-2.591 1.296zM202.105 202.267l.432-2.591h11.66l-6.91 33.252c-.432 3.023-.864 5.182-.864 6.91 0 2.159.864 3.023 2.159 3.023s2.591-.432 4.318-1.727l1.296 1.727c-3.023 2.591-5.614 3.455-8.205 3.455-1.296 0-2.591-.432-3.455-1.727-.864-.864-1.296-2.591-1.296-4.318 0-1.727.432-5.182 1.296-9.501l5.182-23.32c-.864-.864-.432-1.727-.432-2.591 0-1.727-1.727-2.591-4.318-2.591h-.863zM252.2 212.632c3.455 0 6.478 1.296 8.637 3.455 2.159 2.159 3.023 5.182 3.023 9.501 0 5.614-1.727 10.364-5.182 14.683-3.455 4.318-7.773 6.478-12.955 6.478-3.455 0-6.478-1.296-8.637-3.455-2.159-2.159-3.023-5.182-3.023-9.069 0-5.614 1.727-10.364 5.182-14.683 3.454-4.751 7.773-6.91 12.955-6.91zm-5.614 30.661c3.455 0 6.046-2.159 8.205-6.046 2.159-3.887 3.023-8.205 3.023-13.387 0-5.614-2.159-8.637-6.046-8.637-3.455 0-6.046 2.159-8.205 6.046-2.159 3.887-3.023 8.205-3.023 13.387 0 6.046 2.159 8.637 6.046 8.637zM288.043 216.518h-6.91l-6.478 29.798c-.864 4.75-2.591 8.637-4.75 10.796s-4.75 3.455-8.637 3.455c-1.296 0-2.159 0-3.455-.432l.432-2.591c.864.432 2.159.432 2.591.432 2.159 0 3.455-.864 4.75-2.591 1.296-1.727 2.159-4.75 3.023-8.637l6.478-29.798h-5.614l.432-2.159 6.478-1.727.864-3.455c1.296-7.341 5.182-10.796 11.66-10.796 2.591 0 4.75.432 6.046 1.296 1.296.864 2.159 1.727 2.159 3.455 0 2.591-1.727 3.887-5.182 3.887 0-3.887-.864-5.614-3.023-5.614-1.296 0-2.591.432-3.455 1.727s-2.159 3.023-2.591 5.614l-.864 3.887h6.91l-.864 3.453zM321.727 241.134l.864 2.159c-2.591 2.159-5.614 3.023-8.205 3.023-4.318 0-6.478-2.159-6.478-6.91 0-1.727 0-3.023.432-5.182l3.887-17.706h-4.75l.432-2.591c3.887 0 6.91-3.023 9.501-8.637H320l-1.727 7.341h7.341l-.864 3.455h-7.341l-3.887 17.274c-.432 2.159-.864 3.887-.864 5.182 0 2.159 1.296 3.455 3.455 3.455 2.16.432 3.887 0 5.614-.863zM339.865 220.837c3.455-5.614 7.341-8.205 11.228-8.205 4.318 0 6.478 2.159 6.478 6.91 0 1.296-.432 3.455-1.296 6.478l-1.727 7.341c-.432 2.591-.864 4.75-.864 6.478 0 1.727.864 3.023 2.159 3.023s2.591-.432 3.887-1.296l1.296 1.727c-2.591 2.159-5.182 3.455-7.341 3.455-1.727 0-3.023-.432-3.887-1.727-.864-1.296-1.296-2.591-1.296-4.318 0-1.727.432-4.75 1.296-8.205l1.296-6.478c.432-2.591.864-4.318.864-5.614 0-2.591-.864-3.455-2.591-3.455-2.159 0-4.75 1.727-6.91 4.75-2.591 3.023-3.887 6.046-4.318 9.069l-3.455 15.547h-5.614l7.773-37.571v-3.887c0-1.727-1.296-2.591-4.318-2.591h-.432l.432-2.591h11.228l-2.159 11.228c-.864 3.455-1.727 6.91-2.591 9.933h.862zM386.937 238.111c.432.432.432.864.432 1.727 0 1.727-.864 3.023-3.023 4.75-1.727 1.296-4.318 2.159-7.773 2.159s-6.478-1.296-8.637-3.455c-2.159-2.159-3.455-5.182-3.455-9.069 0-5.182 1.727-10.364 5.182-14.683 3.455-4.318 7.773-6.478 12.955-6.478 2.591 0 4.75.432 6.046 1.727s2.159 3.023 2.159 5.182c0 3.455-1.727 6.046-5.182 8.637s-7.773 3.455-12.524 3.455h-2.16v2.591c0 5.614 2.159 8.205 6.478 8.205 3.888-.43 6.91-1.725 9.502-4.748zm-15.115-9.069h.432c3.455 0 6.478-.864 9.069-2.591 2.159-1.727 3.455-3.887 3.455-6.91 0-2.591-1.296-3.887-3.455-3.887s-3.887 1.296-5.614 3.887c-1.728 2.159-3.023 5.182-3.887 9.501z"/></g><g><path d="M443.941 305.047c0 5.182-1.296 9.501-3.887 12.092-2.591 2.591-6.478 4.319-11.66 4.319s-8.637-1.296-11.66-4.319c-2.591-2.591-3.887-6.91-3.887-12.092s1.296-9.501 3.887-12.092c2.591-2.591 6.478-4.318 11.66-4.318s9.069 1.296 11.66 3.887c2.591 3.023 3.887 6.909 3.887 12.523zm-22.025 0c0 6.046 2.159 9.069 6.478 9.069 2.159 0 3.887-.864 4.75-2.159.864-1.296 1.727-3.887 1.727-6.91s-.432-5.614-1.727-6.91c-.864-1.296-2.591-2.159-4.75-2.159-4.318 0-6.478 3.023-6.478 9.069zM457.328 321.026h-8.637l-.432-31.957h18.57v6.91h-10.364v6.046h9.501v6.91h-9.501l.863 12.091z"/></g><g><path d="M466.397 340.459l-51.822.432v-8.637l51.822-.432v8.637z"/></g><g><path d="M520.81 291.66c-3.887 0-6.91 1.727-9.501 4.75-2.159 3.455-3.455 7.773-3.455 13.387 0 12.092 4.75 18.138 13.819 18.138 2.591 0 5.614-.432 7.773-1.296 2.159-.864 5.182-1.727 7.773-2.591V338.3c-5.182 2.159-11.228 3.455-17.706 3.455-9.501 0-16.41-2.591-21.592-8.205-5.182-5.614-7.341-13.387-7.341-23.752 0-6.478 1.296-12.092 3.455-16.842s6.046-8.637 10.364-11.228c4.319-2.591 9.933-3.887 15.978-3.887 6.91 0 12.955 1.296 19.433 4.318l-5.182 13.387c-2.159-.864-4.75-2.159-6.91-2.591-1.726-.863-4.317-1.295-6.908-1.295zM606.316 309.798c0 10.364-2.591 18.57-7.773 23.752-5.182 5.614-12.524 8.205-22.456 8.205-9.933 0-17.274-2.591-22.456-8.205-5.182-5.614-7.773-13.387-7.773-23.752 0-10.364 2.591-18.138 7.773-23.752 5.182-5.614 12.524-8.205 22.456-8.205s17.274 2.591 22.456 8.205c5.182 5.182 7.773 12.955 7.773 23.752zm-42.753 0c0 12.092 4.318 18.138 12.524 18.138 4.318 0 7.341-1.296 9.501-4.318s3.023-7.341 3.023-13.819c0-6.046-.864-10.796-3.023-13.819s-5.182-4.319-9.501-4.319c-8.206-.001-12.524 6.045-12.524 18.137zM616.68 340.891v-62.186h16.842v48.367h23.752v13.387H616.68v.432zM719.028 278.704v37.571c0 8.205-2.159 14.251-6.91 19.001-4.75 4.318-11.228 6.478-19.865 6.478s-15.115-2.159-19.433-6.478c-4.75-4.319-6.91-10.364-6.91-18.57v-37.571h16.842v36.275c0 4.318.864 7.773 2.591 9.501 1.727 2.159 3.887 3.023 7.341 3.023 3.455 0 6.046-.864 7.341-3.023 1.727-2.159 2.159-5.182 2.159-9.501v-36.275h16.842v-.431zM758.327 340.891l-12.524-44.912h-.432c.432 7.773.864 13.387.864 17.706v26.775h-14.683v-61.754h22.456l12.956 44.049h.432l12.524-44.049h22.456v62.186h-15.547v-27.206-4.75c0-1.727.432-6.046.432-12.524h-.432l-12.524 44.48h-15.978zM813.603 278.704h21.592c8.637 0 14.683 1.296 19.001 3.887 3.887 2.591 6.046 6.478 6.046 11.66 0 3.455-.864 6.478-2.591 9.069-1.727 2.591-4.318 3.887-6.91 4.75v.432c3.887.864 6.478 2.591 8.205 5.182 1.727 2.591 2.591 5.614 2.591 9.069 0 5.614-2.159 9.933-6.478 13.387-4.318 3.455-9.933 4.75-17.274 4.75h-24.184l.002-62.186zm16.842 23.752h5.182c2.591 0 4.318-.432 5.614-1.296 1.296-.864 2.159-2.591 2.159-4.318 0-3.455-2.591-5.182-7.773-5.182h-4.75v10.796h-.432zm0 12.524v12.955h6.046c5.182 0 7.773-2.159 7.773-6.478 0-2.159-.864-3.455-2.159-4.75-1.296-1.296-3.455-1.727-6.046-1.727h-5.614zM872.767 340.891v-62.186h16.842v62.186h-16.842zM941.862 340.891l-3.023-11.66h-20.297l-3.023 11.66h-18.57l20.297-62.186h22.456l20.729 62.186h-18.569zm-6.477-25.479l-2.591-10.364c-.432-2.159-1.296-5.182-2.159-8.637-.864-3.455-1.296-6.046-1.727-7.773-.432 1.296-.864 3.887-1.296 7.341-.864 3.455-2.591 9.932-5.182 19.433h12.955z"/></g></svg>